<svg version="1.1" xmlns="http://www.w3.org/2000/svg" xmlns:xlink="http://www.w3.org/1999/xlink" width="933" height="924"><defs/><g><g><rect fill="#C0C0C0" stroke="none" x="303" y="295" width="752" height="904" transform="matrix(1 0 0 1 -126 -278)" fill-opacity="0.2"/></g><g><rect fill="#ffffff" stroke="none" x="296" y="288" width="752" height="904" transform="matrix(1 0 0 1 -126 -278)"/></g><g><path fill="none" stroke="#000000" paint-order="fill stroke markers" d=" M 170 10 L 922 10 L 922 914 L 170 914 L 170 10 Z Z" stroke-miterlimit="10" stroke-dasharray=""/></g><g><g><path fill="none" stroke="none"/><text fill="#000000" stroke="none" font-family="Arial" font-size="13px" font-style="normal" font-weight="bold" text-decoration="undefined" x="672.5" y="301.5" text-anchor="middle" dominant-baseline="central" transform="matrix(1 0 0 1 -126 -278)">Plateforme Web de Gestion de Colocation – EasyColoc</text></g></g><g><path fill="#ffffff" stroke="none" paint-order="stroke fill markers" d=" M 26.748623046874997 171.85000000000002 C 26.748623046874997 166.96227952000004 30.706425414874985 163 35.588623046875 163 C 40.470820678875015 163 44.428623046875 166.96227952000004 44.428623046875 171.85000000000002 C 44.428623046875 176.73772048 40.470820678875015 180.7 35.588623046875 180.7 C 30.706425414874985 180.7 26.748623046874997 176.73772048 26.748623046874997 171.85000000000002 Z"/></g><g><path fill="none" stroke="#000000" paint-order="fill stroke markers" d=" M 26.748623046874997 171.85000000000002 C 26.748623046874997 166.96227952000004 30.706425414874985 163 35.588623046875 163 C 40.470820678875015 163 44.428623046875 166.96227952000004 44.428623046875 171.85000000000002 C 44.428623046875 176.73772048 40.470820678875015 180.7 35.588623046875 180.7 C 30.706425414874985 180.7 26.748623046874997 176.73772048 26.748623046874997 171.85000000000002 Z" stroke-miterlimit="10" stroke-dasharray=""/></g><g><path fill="none" stroke="#000000" paint-order="fill stroke markers" d=" M 35.588623046875 180.7 L 35.588623046875 198.3" stroke-miterlimit="10" stroke-dasharray=""/></g><g><path fill="none" stroke="#000000" paint-order="fill stroke markers" d=" M 26.228623046874986 187.3 L 44.948623046875014 187.3" stroke-miterlimit="10" stroke-dasharray=""/></g><g><path fill="none" stroke="#000000" paint-order="fill stroke markers" d=" M 35.588623046875 198.3 L 22.588623046875 216" stroke-miterlimit="10" stroke-dasharray=""/></g><g><path fill="none" stroke="#000000" paint-order="fill stroke markers" d=" M 35.588623046875 198.3 L 48.588623046875 216" stroke-miterlimit="10" stroke-dasharray=""/></g><g><g><path fill="none" stroke="none"/><text fill="#000000" stroke="none" font-family="Arial" font-size="13px" font-style="normal" font-weight="bold" text-decoration="undefined" x="162.088623046875" y="508.5" text-anchor="middle" dominant-baseline="central" transform="matrix(1 0 0 1 -126 -278)">owner</text></g></g><g><path fill="#ffffff" stroke="none" paint-order="stroke fill markers" d=" M 26.748623046874997 707.85 C 26.748623046874997 702.96227952 30.706425414874985 699 35.588623046875 699 C 40.470820678875015 699 44.428623046875 702.96227952 44.428623046875 707.85 C 44.428623046875 712.73772048 40.470820678875015 716.7 35.588623046875 716.7 C 30.706425414874985 716.7 26.748623046874997 712.73772048 26.748623046874997 707.85 Z"/></g><g><path fill="none" stroke="#000000" paint-order="fill stroke markers" d=" M 26.748623046874997 707.85 C 26.748623046874997 702.96227952 30.706425414874985 699 35.588623046875 699 C 40.470820678875015 699 44.428623046875 702.96227952 44.428623046875 707.85 C 44.428623046875 712.73772048 40.470820678875015 716.7 35.588623046875 716.7 C 30.706425414874985 716.7 26.748623046874997 712.73772048 26.748623046874997 707.85 Z" stroke-miterlimit="10" stroke-dasharray=""/></g><g><path fill="none" stroke="#000000" paint-order="fill stroke markers" d=" M 35.588623046875 716.7 L 35.588623046875 734.3" stroke-miterlimit="10" stroke-dasharray=""/></g><g><path fill="none" stroke="#000000" paint-order="fill stroke markers" d=" M 26.228623046874986 723.3 L 44.948623046875014 723.3" stroke-miterlimit="10" stroke-dasharray=""/></g><g><path fill="none" stroke="#000000" paint-order="fill stroke markers" d=" M 35.588623046875 734.3 L 22.588623046875 752" stroke-miterlimit="10" stroke-dasharray=""/></g><g><path fill="none" stroke="#000000" paint-order="fill stroke markers" d=" M 35.588623046875 734.3 L 48.588623046875 752" stroke-miterlimit="10" stroke-dasharray=""/></g><g><g><path fill="none" stroke="none"/><text fill="#000000" stroke="none" font-family="Arial" font-size="13px" font-style="normal" font-weight="bold" text-decoration="undefined" x="162.088623046875" y="1044.5" text-anchor="middle" dominant-baseline="central" transform="matrix(1 0 0 1 -126 -278)">admin</text></g></g><g><path fill="#C0C0C0" stroke="none" paint-order="stroke fill markers" d=" M 289 98.5 C 289 88.835016 333.5476624 81 388.5 81 C 443.45233759999996 81 488 88.835016 488 98.5 C 488 108.164984 443.45233759999996 116 388.5 116 C 333.5476624 116 289 108.164984 289 98.5 Z" fill-opacity="0.2"/></g><g><path fill="#ffffff" stroke="none" paint-order="stroke fill markers" d=" M 282 91.5 C 282 81.835016 326.5476624 74 381.5 74 C 436.45233759999996 74 481 81.835016 481 91.5 C 481 101.164984 436.45233759999996 109 381.5 109 C 326.5476624 109 282 101.164984 282 91.5 Z"/></g><g><path fill="none" stroke="#000000" paint-order="fill stroke markers" d=" M 282 91.5 C 282 81.835016 326.5476624 74 381.5 74 C 436.45233759999996 74 481 81.835016 481 91.5 C 481 101.164984 436.45233759999996 109 381.5 109 C 326.5476624 109 282 101.164984 282 91.5 Z" stroke-miterlimit="10" stroke-dasharray=""/></g><g><g><path fill="none" stroke="none"/><text fill="#000000" stroke="none" font-family="Arial" font-size="13px" font-style="normal" font-weight="bold" text-decoration="undefined" x="507.5" y="370.5" text-anchor="middle" dominant-baseline="central" transform="matrix(1 0 0 1 -126 -278)">créer une collocation</text></g></g><g><path fill="none" stroke="#000000" paint-order="fill stroke markers" d=" M 62 193 L 322 110" stroke-miterlimit="10" stroke-dasharray=""/></g><g><path fill="none" stroke="#000000" paint-order="fill stroke markers" d=" M 62 196 L 285 150" stroke-miterlimit="10" stroke-dasharray=""/></g><g><path fill="#C0C0C0" stroke="none" paint-order="stroke fill markers" d=" M 393 178.5 C 393 168.835016 431.27964959999997 161 478.5 161 C 525.7203504 161 564 168.835016 564 178.5 C 564 188.164984 525.7203504 196 478.5 196 C 431.27964959999997 196 393 188.164984 393 178.5 Z" fill-opacity="0.2"/></g><g><path fill="#ffffff" stroke="none" paint-order="stroke fill markers" d=" M 386 171.5 C 386 161.835016 424.27964959999997 154 471.5 154 C 518.7203504 154 557 161.835016 557 171.5 C 557 181.164984 518.7203504 189 471.5 189 C 424.27964959999997 189 386 181.164984 386 171.5 Z"/></g><g><path fill="none" stroke="#000000" paint-order="fill stroke markers" d=" M 386 171.5 C 386 161.835016 424.27964959999997 154 471.5 154 C 518.7203504 154 557 161.835016 557 171.5 C 557 181.164984 518.7203504 189 471.5 189 C 424.27964959999997 189 386 181.164984 386 171.5 Z" stroke-miterlimit="10" stroke-dasharray=""/></g><g><g><path fill="none" stroke="none"/><text fill="#000000" stroke="none" font-family="Arial" font-size="13px" font-style="normal" font-weight="bold" text-decoration="undefined" x="597.5" y="450.5" text-anchor="middle" dominant-baseline="central" transform="matrix(1 0 0 1 -126 -278)">retirer un membre</text></g></g><g><path fill="none" stroke="#000000" paint-order="fill stroke markers" d=" M 62 200 L 385 177" stroke-miterlimit="10" stroke-dasharray=""/></g><g><path fill="#C0C0C0" stroke="none" paint-order="stroke fill markers" d=" M 273 138.5 C 273 128.835016 322.248672 121 383 121 C 443.75132800000006 121 493 128.835016 493 138.5 C 493 148.164984 443.75132800000006 156 383 156 C 322.248672 156 273 148.164984 273 138.5 Z" fill-opacity="0.2"/></g><g><path fill="#ffffff" stroke="none" paint-order="stroke fill markers" d=" M 266 131.5 C 266 121.835016 315.248672 114 376 114 C 436.75132800000006 114 486 121.835016 486 131.5 C 486 141.164984 436.75132800000006 149 376 149 C 315.248672 149 266 141.164984 266 131.5 Z"/></g><g><path fill="none" stroke="#000000" paint-order="fill stroke markers" d=" M 266 131.5 C 266 121.835016 315.248672 114 376 114 C 436.75132800000006 114 486 121.835016 486 131.5 C 486 141.164984 436.75132800000006 149 376 149 C 315.248672 149 266 141.164984 266 131.5 Z" stroke-miterlimit="10" stroke-dasharray=""/></g><g><g><path fill="none" stroke="none"/><text fill="#000000" stroke="none" font-family="Arial" font-size="13px" font-style="normal" font-weight="bold" text-decoration="undefined" x="502" y="410.5" text-anchor="middle" dominant-baseline="central" transform="matrix(1 0 0 1 -126 -278)">annuler une collocation</text></g></g><g><path fill="none" stroke="#000000" paint-order="fill stroke markers" d=" M 62 203 L 305 209" stroke-miterlimit="10" stroke-dasharray=""/></g><g><path fill="#C0C0C0" stroke="none" paint-order="stroke fill markers" d=" M 313 218.5 C 313 208.835016 355.9806592 201 409 201 C 462.0193408 201 505 208.835016 505 218.5 C 505 228.164984 462.0193408 236 409 236 C 355.9806592 236 313 228.164984 313 218.5 Z" fill-opacity="0.2"/></g><g><path fill="#ffffff" stroke="none" paint-order="stroke fill markers" d=" M 306 211.5 C 306 201.835016 348.9806592 194 402 194 C 455.0193408 194 498 201.835016 498 211.5 C 498 221.164984 455.0193408 229 402 229 C 348.9806592 229 306 221.164984 306 211.5 Z"/></g><g><path fill="none" stroke="#000000" paint-order="fill stroke markers" d=" M 306 211.5 C 306 201.835016 348.9806592 194 402 194 C 455.0193408 194 498 201.835016 498 211.5 C 498 221.164984 455.0193408 229 402 229 C 348.9806592 229 306 221.164984 306 211.5 Z" stroke-miterlimit="10" stroke-dasharray=""/></g><g><g><path fill="none" stroke="none"/><text fill="#000000" stroke="none" font-family="Arial" font-size="13px" font-style="normal" font-weight="bold" text-decoration="undefined" x="528" y="490.5" text-anchor="middle" dominant-baseline="central" transform="matrix(1 0 0 1 -126 -278)">Inviter des membres</text></g></g><g><path fill="#C0C0C0" stroke="none" paint-order="stroke fill markers" d=" M 393 258.5 C 393 248.835016 433.9659408 241 484.5 241 C 535.0340592 241 576 248.835016 576 258.5 C 576 268.164984 535.0340592 276 484.5 276 C 433.9659408 276 393 268.164984 393 258.5 Z" fill-opacity="0.2"/></g><g><path fill="#ffffff" stroke="none" paint-order="stroke fill markers" d=" M 386 251.5 C 386 241.835016 426.9659408 234 477.5 234 C 528.0340592 234 569 241.835016 569 251.5 C 569 261.164984 528.0340592 269 477.5 269 C 426.9659408 269 386 261.164984 386 251.5 Z"/></g><g><path fill="none" stroke="#000000" paint-order="fill stroke markers" d=" M 386 251.5 C 386 241.835016 426.9659408 234 477.5 234 C 528.0340592 234 569 241.835016 569 251.5 C 569 261.164984 528.0340592 269 477.5 269 C 426.9659408 269 386 261.164984 386 251.5 Z" stroke-miterlimit="10" stroke-dasharray=""/></g><g><g><path fill="none" stroke="none"/><text fill="#000000" stroke="none" font-family="Arial" font-size="13px" font-style="normal" font-weight="bold" text-decoration="undefined" x="603.5" y="530.5" text-anchor="middle" dominant-baseline="central" transform="matrix(1 0 0 1 -126 -278)">créer une categorie</text></g></g><g><path fill="#C0C0C0" stroke="none" paint-order="stroke fill markers" d=" M 297 338.5 C 297 328.835016 348.0395328 321 411 321 C 473.96046720000004 321 525 328.835016 525 338.5 C 525 348.164984 473.96046720000004 356 411 356 C 348.0395328 356 297 348.164984 297 338.5 Z" fill-opacity="0.2"/></g><g><path fill="#ffffff" stroke="none" paint-order="stroke fill markers" d=" M 290 331.5 C 290 321.835016 341.0395328 314 404 314 C 466.96046720000004 314 518 321.835016 518 331.5 C 518 341.164984 466.96046720000004 349 404 349 C 341.0395328 349 290 341.164984 290 331.5 Z"/></g><g><path fill="none" stroke="#000000" paint-order="fill stroke markers" d=" M 290 331.5 C 290 321.835016 341.0395328 314 404 314 C 466.96046720000004 314 518 321.835016 518 331.5 C 518 341.164984 466.96046720000004 349 404 349 C 341.0395328 349 290 341.164984 290 331.5 Z" stroke-miterlimit="10" stroke-dasharray=""/></g><g><g><path fill="none" stroke="none"/><text fill="#000000" stroke="none" font-family="Arial" font-size="13px" font-style="normal" font-weight="bold" text-decoration="undefined" x="530" y="610.5" text-anchor="middle" dominant-baseline="central" transform="matrix(1 0 0 1 -126 -278)">supprimer une categorie</text></g></g><g><path fill="none" stroke="#000000" paint-order="fill stroke markers" d=" M 62 205 L 385 241" stroke-miterlimit="10" stroke-dasharray=""/></g><g><path fill="none" stroke="#000000" paint-order="fill stroke markers" d=" M 62 207 L 431 273" stroke-miterlimit="10" stroke-dasharray=""/></g><g><path fill="none" stroke="#000000" paint-order="fill stroke markers" d=" M 62 212 L 353 313" stroke-miterlimit="10" stroke-dasharray=""/></g><g><path fill="none" stroke="#000000" paint-order="fill stroke markers" d=" M 96 514 L 429 681" stroke-miterlimit="10" stroke-dasharray=""/></g><g><path fill="#C0C0C0" stroke="none" paint-order="stroke fill markers" d=" M 369 506.5 C 369 496.835016 413.77152 489 469 489 C 524.22848 489 569 496.835016 569 506.5 C 569 516.164984 524.22848 524 469 524 C 413.77152 524 369 516.164984 369 506.5 Z" fill-opacity="0.2"/></g><g><path fill="#ffffff" stroke="none" paint-order="stroke fill markers" d=" M 362 499.5 C 362 489.835016 406.77152 482 462 482 C 517.22848 482 562 489.835016 562 499.5 C 562 509.164984 517.22848 517 462 517 C 406.77152 517 362 509.164984 362 499.5 Z"/></g><g><path fill="none" stroke="#000000" paint-order="fill stroke markers" d=" M 362 499.5 C 362 489.835016 406.77152 482 462 482 C 517.22848 482 562 489.835016 562 499.5 C 562 509.164984 517.22848 517 462 517 C 406.77152 517 362 509.164984 362 499.5 Z" stroke-miterlimit="10" stroke-dasharray=""/></g><g><g><path fill="none" stroke="none"/><text fill="#000000" stroke="none" font-family="Arial" font-size="13px" font-style="normal" font-weight="bold" text-decoration="undefined" x="588" y="778.5" text-anchor="middle" dominant-baseline="central" transform="matrix(1 0 0 1 -126 -278)">Marquer un paiement</text></g></g><g><path fill="#C0C0C0" stroke="none" paint-order="stroke fill markers" d=" M 337 410.5 C 337 400.835016 380.652232 393 434.5 393 C 488.347768 393 532 400.835016 532 410.5 C 532 420.164984 488.347768 428 434.5 428 C 380.652232 428 337 420.164984 337 410.5 Z" fill-opacity="0.2"/></g><g><path fill="#ffffff" stroke="none" paint-order="stroke fill markers" d=" M 330 403.5 C 330 393.835016 373.652232 386 427.5 386 C 481.347768 386 525 393.835016 525 403.5 C 525 413.164984 481.347768 421 427.5 421 C 373.652232 421 330 413.164984 330 403.5 Z"/></g><g><path fill="none" stroke="#000000" paint-order="fill stroke markers" d=" M 330 403.5 C 330 393.835016 373.652232 386 427.5 386 C 481.347768 386 525 393.835016 525 403.5 C 525 413.164984 481.347768 421 427.5 421 C 373.652232 421 330 413.164984 330 403.5 Z" stroke-miterlimit="10" stroke-dasharray=""/></g><g><g><path fill="none" stroke="none"/><text fill="#000000" stroke="none" font-family="Arial" font-size="13px" font-style="normal" font-weight="bold" text-decoration="undefined" x="553.5" y="682.5" text-anchor="middle" dominant-baseline="central" transform="matrix(1 0 0 1 -126 -278)">Ajouter une dépense</text></g></g><g><path fill="#C0C0C0" stroke="none" paint-order="stroke fill markers" d=" M 353 650.5 C 353 640.835016 399.7862384 633 457.5 633 C 515.2137616 633 562 640.835016 562 650.5 C 562 660.164984 515.2137616 668 457.5 668 C 399.7862384 668 353 660.164984 353 650.5 Z" fill-opacity="0.2"/></g><g><path fill="#ffffff" stroke="none" paint-order="stroke fill markers" d=" M 346 643.5 C 346 633.835016 392.7862384 626 450.5 626 C 508.2137616 626 555 633.835016 555 643.5 C 555 653.164984 508.2137616 661 450.5 661 C 392.7862384 661 346 653.164984 346 643.5 Z"/></g><g><path fill="none" stroke="#000000" paint-order="fill stroke markers" d=" M 346 643.5 C 346 633.835016 392.7862384 626 450.5 626 C 508.2137616 626 555 633.835016 555 643.5 C 555 653.164984 508.2137616 661 450.5 661 C 392.7862384 661 346 653.164984 346 643.5 Z" stroke-miterlimit="10" stroke-dasharray=""/></g><g><g><path fill="none" stroke="none"/><text fill="#000000" stroke="none" font-family="Arial" font-size="13px" font-style="normal" font-weight="bold" text-decoration="undefined" x="576.5" y="922.5" text-anchor="middle" dominant-baseline="central" transform="matrix(1 0 0 1 -126 -278)">Quitter une colocation</text></g></g><g><path fill="none" stroke="#000000" paint-order="fill stroke markers" d=" M 96 490 L 354 422" stroke-miterlimit="10" stroke-dasharray=""/></g><g><path fill="#C0C0C0" stroke="none" paint-order="stroke fill markers" d=" M 385 546.5 C 385 536.835016 422.1603616 529 468 529 C 513.8396384 529 551 536.835016 551 546.5 C 551 556.164984 513.8396384 564 468 564 C 422.1603616 564 385 556.164984 385 546.5 Z" fill-opacity="0.2"/></g><g><path fill="#ffffff" stroke="none" paint-order="stroke fill markers" d=" M 378 539.5 C 378 529.835016 415.1603616 522 461 522 C 506.8396384 522 544 529.835016 544 539.5 C 544 549.164984 506.8396384 557 461 557 C 415.1603616 557 378 549.164984 378 539.5 Z"/></g><g><path fill="none" stroke="#000000" paint-order="fill stroke markers" d=" M 378 539.5 C 378 529.835016 415.1603616 522 461 522 C 506.8396384 522 544 529.835016 544 539.5 C 544 549.164984 506.8396384 557 461 557 C 415.1603616 557 378 549.164984 378 539.5 Z" stroke-miterlimit="10" stroke-dasharray=""/></g><g><g><path fill="none" stroke="none"/><text fill="#000000" stroke="none" font-family="Arial" font-size="13px" font-style="normal" font-weight="bold" text-decoration="undefined" x="587" y="818.5" text-anchor="middle" dominant-baseline="central" transform="matrix(1 0 0 1 -126 -278)">Voir les membres</text></g></g><g><path fill="none" stroke="#000000" paint-order="fill stroke markers" d=" M 96 498 L 361 499" stroke-miterlimit="10" stroke-dasharray=""/></g><g><path fill="none" stroke="#000000" paint-order="fill stroke markers" d=" M 96 510 L 402 625" stroke-miterlimit="10" stroke-dasharray=""/></g><g><path fill="#C0C0C0" stroke="none" paint-order="stroke fill markers" d=" M 297 706.5 C 297 696.835016 375.5740176 689 472.5 689 C 569.4259824000001 689 648 696.835016 648 706.5 C 648 716.164984 569.4259824000001 724 472.5 724 C 375.5740176 724 297 716.164984 297 706.5 Z" fill-opacity="0.2"/></g><g><path fill="#ffffff" stroke="none" paint-order="stroke fill markers" d=" M 290 699.5 C 290 689.835016 368.5740176 682 465.5 682 C 562.4259824000001 682 641 689.835016 641 699.5 C 641 709.164984 562.4259824000001 717 465.5 717 C 368.5740176 717 290 709.164984 290 699.5 Z"/></g><g><path fill="none" stroke="#000000" paint-order="fill stroke markers" d=" M 290 699.5 C 290 689.835016 368.5740176 682 465.5 682 C 562.4259824000001 682 641 689.835016 641 699.5 C 641 709.164984 562.4259824000001 717 465.5 717 C 368.5740176 717 290 709.164984 290 699.5 Z" stroke-miterlimit="10" stroke-dasharray=""/></g><g><g><path fill="none" stroke="none"/><text fill="#000000" stroke="none" font-family="Arial" font-size="13px" font-style="normal" font-weight="bold" text-decoration="undefined" x="591.5" y="978.5" text-anchor="middle" dominant-baseline="central" transform="matrix(1 0 0 1 -126 -278)">Rejoindre une colocation via invitation</text></g></g><g><path fill="#C0C0C0" stroke="none" paint-order="stroke fill markers" d=" M 353 458.5 C 353 448.835016 389.48878879999995 441 434.5 441 C 479.51121120000005 441 516 448.835016 516 458.5 C 516 468.164984 479.51121120000005 476 434.5 476 C 389.48878879999995 476 353 468.164984 353 458.5 Z" fill-opacity="0.2"/></g><g><path fill="#ffffff" stroke="none" paint-order="stroke fill markers" d=" M 346 451.5 C 346 441.835016 382.4887888 434 427.5 434 C 472.51121120000005 434 509 441.835016 509 451.5 C 509 461.164984 472.51121120000005 469 427.5 469 C 382.4887888 469 346 461.164984 346 451.5 Z"/></g><g><path fill="none" stroke="#000000" paint-order="fill stroke markers" d=" M 346 451.5 C 346 441.835016 382.4887888 434 427.5 434 C 472.51121120000005 434 509 441.835016 509 451.5 C 509 461.164984 472.51121120000005 469 427.5 469 C 382.4887888 469 346 461.164984 346 451.5 Z" stroke-miterlimit="10" stroke-dasharray=""/></g><g><g><path fill="none" stroke="none"/><text fill="#000000" stroke="none" font-family="Arial" font-size="13px" font-style="normal" font-weight="bold" text-decoration="undefined" x="553.5" y="730.5" text-anchor="middle" dominant-baseline="central" transform="matrix(1 0 0 1 -126 -278)">consulte le solde</text></g></g><g><path fill="none" stroke="#000000" paint-order="fill stroke markers" d=" M 96 501 L 377 530" stroke-miterlimit="10" stroke-dasharray=""/></g><g><path fill="none" stroke="#000000" paint-order="fill stroke markers" d=" M 96 494 L 345 462" stroke-miterlimit="10" stroke-dasharray=""/></g><g><path fill="#C0C0C0" stroke="none" paint-order="stroke fill markers" d=" M 769 474.5 C 769 464.835016 797.4299152 457 832.5 457 C 867.5700848 457 896 464.835016 896 474.5 C 896 484.164984 867.5700848 492 832.5 492 C 797.4299152 492 769 484.164984 769 474.5 Z" fill-opacity="0.2"/></g><g><path fill="#ffffff" stroke="none" paint-order="stroke fill markers" d=" M 762 467.5 C 762 457.835016 790.4299152 450 825.5 450 C 860.5700848 450 889 457.835016 889 467.5 C 889 477.164984 860.5700848 485 825.5 485 C 790.4299152 485 762 477.164984 762 467.5 Z"/></g><g><path fill="none" stroke="#000000" paint-order="fill stroke markers" d=" M 762 467.5 C 762 457.835016 790.4299152 450 825.5 450 C 860.5700848 450 889 457.835016 889 467.5 C 889 477.164984 860.5700848 485 825.5 485 C 790.4299152 485 762 477.164984 762 467.5 Z" stroke-miterlimit="10" stroke-dasharray=""/></g><g><g><path fill="none" stroke="none"/><text fill="#000000" stroke="none" font-family="Arial" font-size="13px" font-style="normal" font-weight="bold" text-decoration="undefined" x="951.5" y="746.5" text-anchor="middle" dominant-baseline="central" transform="matrix(1 0 0 1 -126 -278)">se connecter</text></g></g><g><path fill="#C0C0C0" stroke="none" paint-order="stroke fill markers" d=" M 385 602.5 C 385 592.835016 418.1309248 585 459 585 C 499.8690752 585 533 592.835016 533 602.5 C 533 612.164984 499.8690752 620 459 620 C 418.1309248 620 385 612.164984 385 602.5 Z" fill-opacity="0.2"/></g><g><path fill="#ffffff" stroke="none" paint-order="stroke fill markers" d=" M 378 595.5 C 378 585.835016 411.1309248 578 452 578 C 492.8690752 578 526 585.835016 526 595.5 C 526 605.164984 492.8690752 613 452 613 C 411.1309248 613 378 605.164984 378 595.5 Z"/></g><g><path fill="none" stroke="#000000" paint-order="fill stroke markers" d=" M 378 595.5 C 378 585.835016 411.1309248 578 452 578 C 492.8690752 578 526 585.835016 526 595.5 C 526 605.164984 492.8690752 613 452 613 C 411.1309248 613 378 605.164984 378 595.5 Z" stroke-miterlimit="10" stroke-dasharray=""/></g><g><g><path fill="none" stroke="none"/><text fill="#000000" stroke="none" font-family="Arial" font-size="13px" font-style="normal" font-weight="bold" text-decoration="undefined" x="578" y="874.5" text-anchor="middle" dominant-baseline="central" transform="matrix(1 0 0 1 -126 -278)">gérer son profil</text></g></g><g><path fill="#C0C0C0" stroke="none" paint-order="stroke fill markers" d=" M 337 882.5 C 337 872.835016 385.5770992 865 445.5 865 C 505.4229008 865 554 872.835016 554 882.5 C 554 892.164984 505.4229008 900 445.5 900 C 385.5770992 900 337 892.164984 337 882.5 Z" fill-opacity="0.2"/></g><g><path fill="#ffffff" stroke="none" paint-order="stroke fill markers" d=" M 330 875.5 C 330 865.835016 378.5770992 858 438.5 858 C 498.4229008 858 547 865.835016 547 875.5 C 547 885.164984 498.4229008 893 438.5 893 C 378.5770992 893 330 885.164984 330 875.5 Z"/></g><g><path fill="none" stroke="#000000" paint-order="fill stroke markers" d=" M 330 875.5 C 330 865.835016 378.5770992 858 438.5 858 C 498.4229008 858 547 865.835016 547 875.5 C 547 885.164984 498.4229008 893 438.5 893 C 378.5770992 893 330 885.164984 330 875.5 Z" stroke-miterlimit="10" stroke-dasharray=""/></g><g><g><path fill="none" stroke="none"/><text fill="#000000" stroke="none" font-family="Arial" font-size="13px" font-style="normal" font-weight="bold" text-decoration="undefined" x="564.5" y="1154.5" text-anchor="middle" dominant-baseline="central" transform="matrix(1 0 0 1 -126 -278)">débannir  un utilisateur</text></g></g><g><path fill="none" stroke="#000000" paint-order="fill stroke markers" d=" M 62 740 L 297 760" stroke-miterlimit="10" stroke-dasharray=""/></g><g><path fill="none" stroke="#000000" paint-order="fill stroke markers" d=" M 62 744 L 338 801" stroke-miterlimit="10" stroke-dasharray=""/></g><g><path fill="none" stroke="#000000" paint-order="fill stroke markers" d=" M 62 747 L 385 857" stroke-miterlimit="10" stroke-dasharray=""/></g><g><path fill="none" stroke="#000000" paint-order="fill stroke markers" d=" M 62 738 L 826 730 L 825 486" stroke-miterlimit="10" stroke-dasharray=""/></g><g><path fill="#C0C0C0" stroke="none" paint-order="stroke fill markers" d=" M 305 778.5 C 305 768.835016 364.5461216 761 438 761 C 511.4538784 761 571 768.835016 571 778.5 C 571 788.164984 511.4538784 796 438 796 C 364.5461216 796 305 788.164984 305 778.5 Z" fill-opacity="0.2"/></g><g><path fill="#ffffff" stroke="none" paint-order="stroke fill markers" d=" M 298 771.5 C 298 761.835016 357.5461216 754 431 754 C 504.4538784 754 564 761.835016 564 771.5 C 564 781.164984 504.4538784 789 431 789 C 357.5461216 789 298 781.164984 298 771.5 Z"/></g><g><path fill="none" stroke="#000000" paint-order="fill stroke markers" d=" M 298 771.5 C 298 761.835016 357.5461216 754 431 754 C 504.4538784 754 564 761.835016 564 771.5 C 564 781.164984 504.4538784 789 431 789 C 357.5461216 789 298 781.164984 298 771.5 Z" stroke-miterlimit="10" stroke-dasharray=""/></g><g><g><path fill="none" stroke="none"/><text fill="#000000" stroke="none" font-family="Arial" font-size="13px" font-style="normal" font-weight="bold" text-decoration="undefined" x="557" y="1050.5" text-anchor="middle" dominant-baseline="central" transform="matrix(1 0 0 1 -126 -278)">Voir les statistiques globales</text></g></g><g><path fill="#C0C0C0" stroke="none" paint-order="stroke fill markers" d=" M 337 826.5 C 337 816.835016 379.532944 809 432 809 C 484.46705599999996 809 527 816.835016 527 826.5 C 527 836.164984 484.46705599999996 844 432 844 C 379.532944 844 337 836.164984 337 826.5 Z" fill-opacity="0.2"/></g><g><path fill="#ffffff" stroke="none" paint-order="stroke fill markers" d=" M 330 819.5 C 330 809.835016 372.532944 802 425 802 C 477.46705599999996 802 520 809.835016 520 819.5 C 520 829.164984 477.46705599999996 837 425 837 C 372.532944 837 330 829.164984 330 819.5 Z"/></g><g><path fill="none" stroke="#000000" paint-order="fill stroke markers" d=" M 330 819.5 C 330 809.835016 372.532944 802 425 802 C 477.46705599999996 802 520 809.835016 520 819.5 C 520 829.164984 477.46705599999996 837 425 837 C 372.532944 837 330 829.164984 330 819.5 Z" stroke-miterlimit="10" stroke-dasharray=""/></g><g><g><path fill="none" stroke="none"/><text fill="#000000" stroke="none" font-family="Arial" font-size="13px" font-style="normal" font-weight="bold" text-decoration="undefined" x="551" y="1098.5" text-anchor="middle" dominant-baseline="central" transform="matrix(1 0 0 1 -126 -278)">bannir un utilisateur</text></g></g><g><path fill="#ffffff" stroke="none" paint-order="stroke fill markers" d=" M 55.4490625 467.85 C 55.4490625 462.96227952000004 59.406864867999985 459 64.2890625 459 C 69.17126013200001 459 73.1290625 462.96227952000004 73.1290625 467.85 C 73.1290625 472.73772048 69.17126013200001 476.70000000000005 64.2890625 476.70000000000005 C 59.406864867999985 476.70000000000005 55.4490625 472.73772048 55.4490625 467.85 Z"/></g><g><path fill="none" stroke="#000000" paint-order="fill stroke markers" d=" M 55.4490625 467.85 C 55.4490625 462.96227952000004 59.406864867999985 459 64.2890625 459 C 69.17126013200001 459 73.1290625 462.96227952000004 73.1290625 467.85 C 73.1290625 472.73772048 69.17126013200001 476.70000000000005 64.2890625 476.70000000000005 C 59.406864867999985 476.70000000000005 55.4490625 472.73772048 55.4490625 467.85 Z" stroke-miterlimit="10" stroke-dasharray=""/></g><g><path fill="none" stroke="#000000" paint-order="fill stroke markers" d=" M 64.2890625 476.70000000000005 L 64.2890625 494.29999999999995" stroke-miterlimit="10" stroke-dasharray=""/></g><g><path fill="none" stroke="#000000" paint-order="fill stroke markers" d=" M 54.929062499999986 483.29999999999995 L 73.64906250000001 483.29999999999995" stroke-miterlimit="10" stroke-dasharray=""/></g><g><path fill="none" stroke="#000000" paint-order="fill stroke markers" d=" M 64.2890625 494.29999999999995 L 51.2890625 512" stroke-miterlimit="10" stroke-dasharray=""/></g><g><path fill="none" stroke="#000000" paint-order="fill stroke markers" d=" M 64.2890625 494.29999999999995 L 77.2890625 512" stroke-miterlimit="10" stroke-dasharray=""/></g><g><g><path fill="none" stroke="none"/><text fill="#000000" stroke="none" font-family="Arial" font-size="13px" font-style="normal" font-weight="bold" text-decoration="undefined" x="190.7890625" y="804.5" text-anchor="middle" dominant-baseline="central" transform="matrix(1 0 0 1 -126 -278)">member</text></g></g><g><path fill="none" stroke="#000000" paint-order="fill stroke markers" d=" M 96 506 L 380 577" stroke-miterlimit="10" stroke-dasharray=""/></g><g><path fill="#ffffff" stroke="none" paint-order="stroke fill markers" d=" M 610 434 L 715.8525390625 434 L 725.8525390625 444 L 725.8525390625 523 L 610 523 L 610 434"/></g><g><path fill="none" stroke="#000000" paint-order="fill stroke markers" d=" M 610 434 L 715.8525390625 434 L 725.8525390625 444 L 725.8525390625 523 L 610 523 L 610 434 L 610 434" stroke-miterlimit="10" stroke-dasharray=""/></g><g><path fill="none" stroke="#000000" paint-order="fill stroke markers" d=" M 715.8525390625 434 L 715.8525390625 444 L 725.8525390625 444 L 715.8525390625 434" stroke-miterlimit="10" stroke-dasharray=""/></g><g><g><path fill="none" stroke="none"/><text fill="#000000" stroke="none" font-family="Arial" font-size="13px" font-style="normal" font-weight="normal" text-decoration="undefined" x="741" y="717" text-anchor="start" dominant-baseline="text-before-edge" transform="matrix(1 0 0 1 -126 -278)">L’authentification</text><text fill="#000000" stroke="none" font-family="Arial" font-size="13px" font-style="normal" font-weight="normal" text-decoration="undefined" x="741" y="730" text-anchor="start" dominant-baseline="text-before-edge" transform="matrix(1 0 0 1 -126 -278)">est requise avant</text><text fill="#000000" stroke="none" font-family="Arial" font-size="13px" font-style="normal" font-weight="normal" text-decoration="undefined" x="741" y="743" text-anchor="start" dominant-baseline="text-before-edge" transform="matrix(1 0 0 1 -126 -278)">l’accès à toutes</text><text fill="#000000" stroke="none" font-family="Arial" font-size="13px" font-style="normal" font-weight="normal" text-decoration="undefined" x="741" y="756" text-anchor="start" dominant-baseline="text-before-edge" transform="matrix(1 0 0 1 -126 -278)">les fonctionnalités</text><text fill="#000000" stroke="none" font-family="Arial" font-size="13px" font-style="normal" font-weight="normal" text-decoration="undefined" x="741" y="769" text-anchor="start" dominant-baseline="text-before-edge" transform="matrix(1 0 0 1 -126 -278)">du système</text></g></g><g><path fill="none" stroke="#000000" paint-order="fill stroke markers" d=" M 728 474 L 761 472" stroke-miterlimit="10" stroke-dasharray="3"/></g><g><path fill="none" stroke="#000000" paint-order="fill stroke markers" d=" M 62 237 L 66 242 L 64 457" stroke-miterlimit="10" stroke-dasharray=""/></g><g><path fill="#FFFFFF" stroke="none" paint-order="stroke fill markers" d=" M 55.77039356821396 436.59721641594206 L 64 457 L 72.60773611295664 436.7538428582187"/></g><g><path fill="none" stroke="#000000" paint-order="fill stroke markers" d=" M 55.77039356821396 436.59721641594206 L 64 457 L 72.60773611295664 436.7538428582187 L 55.77039356821396 436.59721641594206" stroke-miterlimit="10" stroke-dasharray=""/></g><g><path fill="none" stroke="#000000" paint-order="fill stroke markers" d=" M 35 697 L 35 243" stroke-miterlimit="10" stroke-dasharray=""/></g><g><path fill="#FFFFFF" stroke="none" paint-order="stroke fill markers" d=" M 43.41903551203197 263.3253497152483 L 35 243 L 26.580964487968032 263.3253497152483"/></g><g><path fill="none" stroke="#000000" paint-order="fill stroke markers" d=" M 43.41903551203197 263.3253497152483 L 35 243 L 26.580964487968032 263.3253497152483 L 43.41903551203197 263.3253497152483" stroke-miterlimit="10" stroke-dasharray=""/></g><g><path fill="#ffffff" stroke="none" paint-order="stroke fill markers" d=" M 674 602 L 744.00732421875 602 L 754.00732421875 612 L 754.00732421875 678 L 674 678 L 674 602"/></g><g><path fill="none" stroke="#000000" paint-order="fill stroke markers" d=" M 674 602 L 744.00732421875 602 L 754.00732421875 612 L 754.00732421875 678 L 674 678 L 674 602 L 674 602" stroke-miterlimit="10" stroke-dasharray=""/></g><g><path fill="none" stroke="#000000" paint-order="fill stroke markers" d=" M 744.00732421875 602 L 744.00732421875 612 L 754.00732421875 612 L 744.00732421875 602" stroke-miterlimit="10" stroke-dasharray=""/></g><g><g><path fill="none" stroke="none"/><text fill="#000000" stroke="none" font-family="Arial" font-size="13px" font-style="normal" font-weight="normal" text-decoration="undefined" x="805" y="885" text-anchor="start" dominant-baseline="text-before-edge" transform="matrix(1 0 0 1 -126 -278)">seulement</text><text fill="#000000" stroke="none" font-family="Arial" font-size="13px" font-style="normal" font-weight="normal" text-decoration="undefined" x="805" y="898" text-anchor="start" dominant-baseline="text-before-edge" transform="matrix(1 0 0 1 -126 -278)">si</text><text fill="#000000" stroke="none" font-family="Arial" font-size="13px" font-style="normal" font-weight="normal" text-decoration="undefined" x="805" y="911" text-anchor="start" dominant-baseline="text-before-edge" transform="matrix(1 0 0 1 -126 -278)">l'utilisateur</text><text fill="#000000" stroke="none" font-family="Arial" font-size="13px" font-style="normal" font-weight="normal" text-decoration="undefined" x="805" y="924" text-anchor="start" dominant-baseline="text-before-edge" transform="matrix(1 0 0 1 -126 -278)">est un</text><text fill="#000000" stroke="none" font-family="Arial" font-size="13px" font-style="normal" font-weight="normal" text-decoration="undefined" x="805" y="937" text-anchor="start" dominant-baseline="text-before-edge" transform="matrix(1 0 0 1 -126 -278)">membre </text></g></g><g><path fill="none" stroke="#000000" paint-order="fill stroke markers" d=" M 556 642 L 673 640" stroke-miterlimit="10" stroke-dasharray="3"/></g><g><path fill="none" stroke="#000000" paint-order="fill stroke markers" d=" M 541 681 L 673 650" stroke-miterlimit="10" stroke-dasharray="3"/></g><g><path fill="#C0C0C0" stroke="none" paint-order="stroke fill markers" d=" M 777 338.5 C 777 328.835016 799.8334752 321 828 321 C 856.1665248 321 879 328.835016 879 338.5 C 879 348.164984 856.1665248 356 828 356 C 799.8334752 356 777 348.164984 777 338.5 Z" fill-opacity="0.2"/></g><g><path fill="#ffffff" stroke="none" paint-order="stroke fill markers" d=" M 770 331.5 C 770 321.835016 792.8334752 314 821 314 C 849.1665248 314 872 321.835016 872 331.5 C 872 341.164984 849.1665248 349 821 349 C 792.8334752 349 770 341.164984 770 331.5 Z"/></g><g><path fill="none" stroke="#000000" paint-order="fill stroke markers" d=" M 770 331.5 C 770 321.835016 792.8334752 314 821 314 C 849.1665248 314 872 321.835016 872 331.5 C 872 341.164984 849.1665248 349 821 349 C 792.8334752 349 770 341.164984 770 331.5 Z" stroke-miterlimit="10" stroke-dasharray=""/></g><g><g><path fill="none" stroke="none"/><text fill="#000000" stroke="none" font-family="Arial" font-size="13px" font-style="normal" font-weight="bold" text-decoration="undefined" x="947" y="610.5" text-anchor="middle" dominant-baseline="central" transform="matrix(1 0 0 1 -126 -278)">s'inscrire</text></g></g><g><path fill="none" stroke="#000000" paint-order="fill stroke markers" d=" M 824 449 L 822 350" stroke-miterlimit="10" stroke-dasharray="3"/></g><g><path fill="none" stroke="#000000" paint-order="fill stroke markers" d=" M 826.4139237018308 360.0755782739461 L 822 350 L 817.9966056593214 360.24562510308783" stroke-miterlimit="10" stroke-dasharray=""/></g><g><rect fill="#ffffff" stroke="none" x="892" y="671" width="55.65625" height="13" transform="matrix(1 0 0 1 -126 -278)"/></g><g><g><path fill="none" stroke="none"/><text fill="#000000" stroke="none" font-family="Arial" font-size="13px" font-style="normal" font-weight="normal" text-decoration="undefined" x="919.828125" y="677.5" text-anchor="middle" dominant-baseline="central" transform="matrix(1 0 0 1 -126 -278)">«include»</text></g></g><g><path fill="#C0C0C0" stroke="none" paint-order="stroke fill markers" d=" M 433 298.5 C 433 288.835016 480.23395359999995 281 538.5 281 C 596.7660464 281 644 288.835016 644 298.5 C 644 308.164984 596.7660464 316 538.5 316 C 480.23395359999995 316 433 308.164984 433 298.5 Z" fill-opacity="0.2"/></g><g><path fill="#ffffff" stroke="none" paint-order="stroke fill markers" d=" M 426 291.5 C 426 281.835016 473.23395359999995 274 531.5 274 C 589.7660464 274 637 281.835016 637 291.5 C 637 301.164984 589.7660464 309 531.5 309 C 473.23395359999995 309 426 301.164984 426 291.5 Z"/></g><g><path fill="none" stroke="#000000" paint-order="fill stroke markers" d=" M 426 291.5 C 426 281.835016 473.23395359999995 274 531.5 274 C 589.7660464 274 637 281.835016 637 291.5 C 637 301.164984 589.7660464 309 531.5 309 C 473.23395359999995 309 426 301.164984 426 291.5 Z" stroke-miterlimit="10" stroke-dasharray=""/></g><g><g><path fill="none" stroke="none"/><text fill="#000000" stroke="none" font-family="Arial" font-size="13px" font-style="normal" font-weight="bold" text-decoration="undefined" x="657.5" y="570.5" text-anchor="middle" dominant-baseline="central" transform="matrix(1 0 0 1 -126 -278)">modifier une categorie</text></g></g></g></svg>